<?xml version="1.0" encoding="utf-8"?>
<!-- Generator: Adobe Illustrator 16.0.0, SVG Export Plug-In . SVG Version: 6.00 Build 0)  -->
<!DOCTYPE svg PUBLIC "-//W3C//DTD SVG 1.1 Tiny//EN" "http://www.w3.org/Graphics/SVG/1.1/DTD/svg11-tiny.dtd">
<svg version="1.1" baseProfile="tiny" id="Capa_1" xmlns="http://www.w3.org/2000/svg" xmlns:xlink="http://www.w3.org/1999/xlink"
	 x="0px" y="0px" width="1024px" height="768px" viewBox="0 0 1024 768" overflow="scroll" xml:space="preserve">
<g>
	<g id="XMLID_1_">
		<g>
			<path fill="#FFFFFF" d="M867.02,137.66c16,0,28.98,12.98,28.98,28.98s-12.98,28.98-28.98,28.98H156.98
				c-16,0-28.98-12.98-28.98-28.98s12.98-28.98,28.98-28.98H867.02z"/>
			<path fill="#FFFFFF" d="M867.02,355.02c16,0,28.98,12.98,28.98,28.98s-12.98,28.98-28.98,28.98H156.98
				c-16,0-28.98-12.98-28.98-28.98s12.98-28.98,28.98-28.98H867.02z"/>
			<path fill="#FFFFFF" d="M867.02,572.38c16,0,28.98,12.98,28.98,28.98s-12.98,28.979-28.98,28.979H156.98
				c-16,0-28.98-12.979-28.98-28.979s12.98-28.98,28.98-28.98H867.02z"/>
		</g>
		<g>
		</g>
	</g>
</g>
</svg>
